# xmcd
#
# Track frame offsets:
#	150
#	18955
#	35272
#	54642
#
# Disc length: 954 seconds
# Revision: 4
# Processed by: cddbd v1.5.2PL0 Copyright (c) Steve Scherf et al.
# Submitted via: dBpowerAMP V12.0
#
DISCID=2703b804
DTITLE=Leann Rimes - How Do I Live - Single
DYEAR=1998
DGENRE=Country
TTITLE0=How Do I Live
TTITLE1=You Light Up My Life
TTITLE2=How Do I Live (Club Radio Edit)
TTITLE3=How Do I Live (RH Factor Radio Edit)
EXTD=
EXTT0=
EXTT1=
EXTT2=
EXTT3=
PLAYORDER=
